# File created by Blade
# Date/Time:  Thu Jan 22 16:25:48 2015
# Frame Rate: 120.000 fps
#------------------------------------------------------
:FULLY-SPECIFIED
:DEGREES
391
root -1.214120 39.097143 7.482218 49.538751 15.758121 39.357443
RightUpLeg -41.434656 -18.571809 -27.985911
RightLeg 14.573603 -0.000000 -0.000000
RightFoot -16.791531 -23.378217 16.347541
RightToeBase 11.391870 -0.000000 -0.000000
LeftUpLeg 9.499566 -26.770201 10.549170
LeftLeg 131.489381 -0.000000 -0.000000
LeftFoot 17.082630 15.225770 -29.992463
LeftToeBase 3.952536 -0.000000 -0.000000
Spine 13.991934 1.218831 -16.916911
RightShoulder -3.523426 -6.323633 -38.773089
RightArm 16.319635 40.820840 21.900996
RightForeArm 9.743162 -0.000000 26.634714
RightHand 8.232955 0.000000 -16.888971
RightHandThumb1 -24.326973 -0.000000 -32.862282
LeftShoulder -33.936415 36.361499 -14.042372
LeftArm 28.570433 -17.939230 -72.407077
LeftForeArm 49.157846 -0.000000 11.496294
LeftHand -12.635179 -0.000000 -19.115929
LeftHandThumb1 -26.253704 0.000000 33.147579
Head -6.081869 -15.773997 -14.800511
392
root -1.234005 39.111773 7.470317 49.703750 15.810731 39.258635
RightUpLeg -41.403143 -18.607360 -27.813056
RightLeg 14.105886 -0.000000 -0.000000
RightFoot -16.783125 -23.255583 16.598241
RightToeBase 11.480095 -0.000000 -0.000000
LeftUpLeg 9.473907 -26.703458 10.692539
LeftLeg 131.478283 -0.000000 -0.000000
LeftFoot 17.052232 15.265374 -30.067535
LeftToeBase 3.902905 -0.000000 -0.000000
Spine 13.972457 1.186009 -16.826244
RightShoulder -3.527988 -6.212917 -38.918528
RightArm 16.530864 40.745727 21.952635
RightForeArm 9.806207 -0.000000 26.489748
RightHand 8.065609 -0.000000 -16.798646
RightHandThumb1 -24.326973 -0.000000 -32.862282
LeftShoulder -33.867980 36.308116 -14.020890
LeftArm 28.485800 -18.074921 -72.510731
LeftForeArm 49.169094 -0.000000 11.418124
LeftHand -12.687410 -0.000000 -18.908971
LeftHandThumb1 -26.253704 0.000000 33.147579
Head -5.975837 -15.906362 -14.778521
393
root -1.257868 39.124572 7.458368 49.868622 15.848826 39.130705
RightUpLeg -41.395524 -18.571798 -27.648330
RightLeg 13.628490 -0.000000 -0.000000
RightFoot -16.676682 -23.240430 16.749520
RightToeBase 11.564493 -0.000000 -0.000000
LeftUpLeg 9.436290 -26.637423 10.868041
LeftLeg 131.437699 -0.000000 -0.000000
LeftFoot 17.038745 15.300140 -30.135740
LeftToeBase 3.973027 -0.000000 -0.000000
Spine 13.921939 1.160301 -16.747022
RightShoulder -3.471038 -6.048031 -39.060408
RightArm 16.649538 40.596135 21.930421
RightForeArm 9.901935 -0.000000 26.354075
RightHand 8.055844 -0.000000 -16.881280
RightHandThumb1 -24.326973 -0.000000 -32.862282
LeftShoulder -33.867997 36.289186 -14.037867
LeftArm 28.470093 -18.263779 -72.656127
LeftForeArm 49.321349 -0.000000 11.366641
LeftHand -12.848831 0.000000 -18.645185
LeftHandThumb1 -26.253704 0.000000 33.147579
Head -5.876170 -16.035655 -14.741612
394
root -1.276984 39.138473 7.449262 50.004134 15.838691 39.014249
RightUpLeg -41.354114 -18.491374 -27.545294
RightLeg 13.121150 -0.000000 -0.000000
RightFoot -16.601420 -23.257299 16.947318
RightToeBase 11.683687 -0.000000 -0.000000
LeftUpLeg 9.460808 -26.543938 10.945180
LeftLeg 131.374069 -0.000000 -0.000000
LeftFoot 16.973501 15.368875 -30.106020
LeftToeBase 4.187078 -0.000000 -0.000000
Spine 13.909403 1.209647 -16.724100
RightShoulder -3.467680 -5.962763 -39.153670
RightArm 16.798691 40.544746 21.915853
RightForeArm 9.976600 -0.000000 26.221713
RightHand 8.108312 0.000000 -16.870844
RightHandThumb1 -24.326973 -0.000000 -32.862282
LeftShoulder -33.909141 36.287233 -14.086402
LeftArm 28.548681 -18.460369 -72.775575
LeftForeArm 49.450701 0.000000 11.316425
LeftHand -12.892986 -0.000000 -18.430404
LeftHandThumb1 -26.253704 0.000000 33.147579
Head -5.843304 -16.214301 -14.637685
395
root -1.292406 39.152239 7.441774 50.112159 15.819203 38.911486
RightUpLeg -41.294981 -18.410503 -27.462038
RightLeg 12.647325 -0.000000 -0.000000
RightFoot -16.466316 -23.303709 17.041590
RightToeBase 11.732268 -0.000000 -0.000000
LeftUpLeg 9.504736 -26.494457 11.005649
LeftLeg 131.305151 -0.000000 -0.000000
LeftFoot 16.915975 15.421616 -30.245424
LeftToeBase 4.131094 -0.000000 -0.000000
Spine 13.923802 1.310357 -16.690877
RightShoulder -3.480412 -5.925571 -39.266895
RightArm 16.896929 40.463719 21.863662
RightForeArm 10.058834 -0.000000 26.119191
RightHand 8.123515 -0.000000 -16.996653
RightHandThumb1 -24.326973 -0.000000 -32.862282
LeftShoulder -33.867469 36.232159 -14.073856
LeftArm 28.553301 -18.617598 -72.822897
LeftForeArm 49.627212 -0.000000 11.287516
LeftHand -12.902448 0.000000 -18.345256
LeftHandThumb1 -26.253704 0.000000 33.147579
Head -5.811502 -16.414453 -14.588684
396
root -1.308210 39.164605 7.437732 50.191478 15.811436 38.819407
RightUpLeg -41.220067 -18.369099 -27.350782
RightLeg 12.197049 -0.000000 -0.000000
RightFoot -16.259270 -23.303647 16.994399
RightToeBase 11.665951 -0.000000 -0.000000
LeftUpLeg 9.602395 -26.472814 11.032508
LeftLeg 131.215524 -0.000000 -0.000000
LeftFoot 16.851044 15.489106 -30.149702
LeftToeBase 4.050248 -0.000000 -0.000000
Spine 13.993922 1.408921 -16.667636
RightShoulder -3.536092 -5.866845 -39.367386
RightArm 17.086980 40.480590 21.908775
RightForeArm 10.033192 -0.000000 25.977857
RightHand 8.226920 -0.000000 -17.046978
RightHandThumb1 -24.326973 -0.000000 -32.862282
LeftShoulder -33.856343 36.127142 -14.060012
LeftArm 28.553606 -18.731927 -72.823265
LeftForeArm 49.773711 -0.000000 11.280837
LeftHand -12.909050 -0.000000 -18.269731
LeftHandThumb1 -26.253704 0.000000 33.147579
Head -5.857142 -16.618887 -14.489935
397
root -1.320788 39.176622 7.435905 50.241707 15.784096 38.770849
RightUpLeg -41.104656 -18.334904 -27.296060
RightLeg 11.764379 -0.000000 -0.000000
RightFoot -16.056865 -23.312671 16.880761
RightToeBase 11.572067 -0.000000 -0.000000
LeftUpLeg 9.732148 -26.476965 10.985331
LeftLeg 131.125402 -0.000000 -0.000000
LeftFoot 16.760512 15.605042 -30.105651
LeftToeBase 4.065568 -0.000000 -0.000000
Spine 14.097953 1.479085 -16.700590
RightShoulder -3.526903 -5.794926 -39.481442
RightArm 17.200709 40.485528 21.920177
RightForeArm 9.943306 -0.000000 25.865164
RightHand 8.196909 -0.000000 -17.197271
RightHandThumb1 -24.326973 -0.000000 -32.862282
LeftShoulder -33.830865 36.057743 -14.026845
LeftArm 28.529589 -18.856541 -72.827641
LeftForeArm 49.938179 -0.000000 11.334581
LeftHand -12.944323 -0.000000 -18.266590
LeftHandThumb1 -26.253704 0.000000 33.147579
Head -5.927278 -16.776784 -14.369830
